<svg width="122" height="122" viewBox="0 0 122 122" fill="none" xmlns="http://www.w3.org/2000/svg">
<path d="M48.852 26.08C49.278 26.03 49.7068 26.009 50.1355 26.0129C54.0735 26.0247 58.0115 26.0077 61.9495 26.0208C63.5382 26.1378 65.1336 26.0642 66.7249 26.0839C68.6707 26.1207 70.6178 26.0957 72.5636 26.1194C73.6599 26.0826 74.7881 26.2009 75.7888 26.6741C76.6118 27.0251 77.3179 27.593 77.9337 28.2306C79.8052 30.1013 81.6713 31.9785 83.56 33.832C84.8116 35.1768 86.1588 36.4283 87.4515 37.7337C89.3283 39.5991 91.1745 41.4947 93.0672 43.3456C93.8184 44.1344 94.6825 44.8298 95.2943 45.7382C95.9089 46.6807 96.2924 47.7902 96.2871 48.9195C96.2871 56.5466 96.2871 64.1738 96.2871 71.801C96.3243 73.1629 96.323 74.609 95.5996 75.8197C95.1417 76.7228 94.3931 77.4195 93.6764 78.1163C88.4138 83.3338 83.1552 88.5553 77.8899 93.769C77.075 94.5814 76.0636 95.2334 74.9248 95.4845C74.1576 95.6948 73.356 95.6988 72.5662 95.6988C64.9557 95.6974 57.3465 95.7001 49.7373 95.6975C49.0152 95.6804 48.276 95.7145 47.5791 95.5016C46.5452 95.2019 45.575 94.6576 44.8304 93.8807C39.4682 88.6329 34.1817 83.3075 28.8408 78.0374C28.2064 77.3919 27.4963 76.8004 27.0344 76.0129C26.4517 75.0651 26.0708 73.9727 26.1412 72.8514C26.1425 65.1401 26.1438 57.4274 26.1412 49.7161C26.1504 48.9812 26.0921 48.228 26.2991 47.5129C26.6163 46.4323 27.1977 45.4214 28.0245 44.6444C33.7344 38.9931 39.4151 33.3128 45.1476 27.6851C46.147 26.7517 47.4796 26.1667 48.852 26.08ZM41.1791 45.9722C40.2911 46.8411 39.8425 48.09 39.8359 49.3138C39.8319 50.8019 39.8478 52.2887 39.8279 53.7768C41.4074 53.8518 42.9908 53.7781 44.5716 53.8163C44.6154 54.7707 44.5848 55.7277 44.5928 56.6834C44.5888 63.485 44.6008 70.2879 44.5862 77.0896C44.9751 77.1172 45.3653 77.1303 45.7555 77.1251C48.4658 77.0988 51.176 77.154 53.8863 77.0988C53.9288 75.3767 53.8916 73.6546 53.9036 71.9325C53.8996 65.8946 53.9129 59.8554 53.8969 53.8176C58.7122 53.7965 63.5289 53.8097 68.3455 53.8123C68.3986 58.671 68.3442 63.5323 68.3721 68.3923C68.3973 69.4111 68.7304 70.3879 69.057 71.3449C70.1108 73.9385 72.4017 76.0156 75.1332 76.757C76.6184 77.2408 78.1965 77.1027 79.7335 77.1198C80.6652 77.1106 81.597 77.1448 82.5274 77.0988C82.5712 75.2886 82.534 73.4784 82.5473 71.6696C82.5314 70.451 82.5818 69.231 82.5168 68.0137C81.3673 67.9914 80.214 68.0518 79.0659 67.9874C78.377 67.948 77.6457 67.4235 77.6895 66.6794C77.7054 62.3886 77.6643 58.0965 77.7107 53.8071C79.2981 53.7847 80.8882 53.8557 82.473 53.7729C82.4491 50.7152 82.4557 47.6575 82.469 44.5998C81.6938 44.4998 80.9108 44.5603 80.1317 44.5485C68.2752 44.5472 56.4187 44.5498 44.5609 44.5472C43.304 44.5432 42.0352 45.0507 41.1791 45.9722Z" fill="#FBBA00"/>
</svg>
