<svg xmlns="http://www.w3.org/2000/svg" width="41.451" height="41.438" viewBox="0 0 41.451 41.438">
  <g id="synchronize_2499263" transform="translate(0 -0.01)">
    <path id="Tracé_75" data-name="Tracé 75" d="M42.848,20.539A20.743,20.743,0,0,0,22.129.01,20.529,20.529,0,0,0,8.436,5.2L6.21,2.979A1.295,1.295,0,0,0,4,3.895v10.36a1.3,1.3,0,0,0,1.295,1.295h10.36a1.295,1.295,0,0,0,.916-2.21l-2.63-2.63A12.834,12.834,0,0,1,22.129,7.78,12.964,12.964,0,0,1,35.079,20.729a1.3,1.3,0,0,0,1.295,1.295h5.192a1.3,1.3,0,0,0,1.282-1.485Z" transform="translate(-1.41)" fill="#fff"/>
    <path id="Tracé_76" data-name="Tracé 76" d="M37.553,36.485H27.194a1.295,1.295,0,0,0-.916,2.21l2.63,2.629A12.939,12.939,0,0,1,7.77,31.3,1.3,1.3,0,0,0,6.475,30.01H1.295A1.3,1.3,0,0,0,0,31.3,20.742,20.742,0,0,0,20.719,52.024,20.532,20.532,0,0,0,34.413,46.83l2.225,2.225a1.295,1.295,0,0,0,2.21-.916V37.78a1.3,1.3,0,0,0-1.295-1.295Z" transform="translate(0 -10.576)" fill="#fff"/>
  </g>
</svg>
