<svg id="development_5138556" xmlns="http://www.w3.org/2000/svg" width="47.021" height="47.021" viewBox="0 0 47.021 47.021">
  <path id="Tracé_54" data-name="Tracé 54" d="M287.53,20.615V0a20.615,20.615,0,0,1,20.615,20.615Z" transform="translate(-261.124)" fill="#fcf8f5" fill-rule="evenodd"/>
  <g id="Groupe_17" data-name="Groupe 17" transform="translate(0 3.954)">
    <path id="Tracé_55" data-name="Tracé 55" d="M42.148,63.674H30.9a.918.918,0,0,0-.918.918c-.422,11.192-16.479,11.2-16.9,0a8.461,8.461,0,0,1,8.452-8.452.918.918,0,0,0,.918-.918V43.977a.918.918,0,0,0-.918-.918H17.238a.918.918,0,0,0-.918.88l-.14,3.362a18.016,18.016,0,0,0-3.088,1.281L10.615,46.3a.918.918,0,0,0-1.271.026L3.27,52.4a.918.918,0,0,0-.026,1.271l2.279,2.477A18,18,0,0,0,4.241,59.24L.88,59.38A.918.918,0,0,0,0,60.3v8.589a.918.918,0,0,0,.88.918l3.362.14a18,18,0,0,0,1.281,3.088L3.244,75.51a.918.918,0,0,0,.026,1.271l6.074,6.074a.919.919,0,0,0,1.271.026L13.092,80.6a17.994,17.994,0,0,0,3.089,1.281l.14,3.361a.918.918,0,0,0,.918.88h8.589a.918.918,0,0,0,.918-.88l.14-3.362A18,18,0,0,0,29.974,80.6l2.478,2.279a.919.919,0,0,0,1.271-.026L39.8,76.782a.918.918,0,0,0,.026-1.271l-2.279-2.477a18.014,18.014,0,0,0,1.281-3.089l3.361-.14a.918.918,0,0,0,.88-.918V64.592a.918.918,0,0,0-.918-.918Zm-.918,4.332-3.141.131a.918.918,0,0,0-.849.68,16.171,16.171,0,0,1-1.614,3.893.918.918,0,0,0,.119,1.081l2.13,2.315-4.828,4.828L30.731,78.8a.919.919,0,0,0-1.081-.12A16.171,16.171,0,0,1,25.758,80.3a.918.918,0,0,0-.68.849l-.131,3.142H18.119l-.131-3.141a.918.918,0,0,0-.68-.849,16.17,16.17,0,0,1-3.893-1.614.918.918,0,0,0-1.081.119l-2.315,2.13L5.192,76.106,7.323,73.79a.919.919,0,0,0,.119-1.081,16.17,16.17,0,0,1-1.614-3.892.918.918,0,0,0-.849-.68l-3.142-.131V61.178l3.141-.131a.918.918,0,0,0,.849-.68,16.17,16.17,0,0,1,1.614-3.893.918.918,0,0,0-.119-1.081l-2.13-2.315,4.828-4.828,2.316,2.131a.919.919,0,0,0,1.081.119,16.174,16.174,0,0,1,3.892-1.614.918.918,0,0,0,.68-.849l.131-3.142h2.5v9.448a10.3,10.3,0,0,0-9.37,10.248c.405,13.077,19,13.84,20.537.918H41.23v2.5Z" transform="translate(0 -43.059)" fill="#facde3"/>
    <path id="Tracé_56" data-name="Tracé 56" d="M349.545,70.293l.918.38a.778.778,0,0,1-.6,1.438l-.459-.19a.918.918,0,0,0-.7,1.7c.184.067.546.241.732.286v.416a.918.918,0,0,0,1.837,0v-.561a2.626,2.626,0,0,0,1.305-3.367c-.469-1.122-1.3-1.379-2.331-1.8a.778.778,0,1,1,.6-1.438l.459.19a.918.918,0,1,0,.7-1.7c-.183-.064-.547-.243-.732-.286v-.416a.918.918,0,0,0-1.837,0v.561A2.619,2.619,0,0,0,349.545,70.293Z" transform="translate(-315.985 -62.11)" fill="#facde3"/>
  </g>
</svg>
