<svg xmlns="http://www.w3.org/2000/svg" width="58.931" height="51.596" viewBox="0 0 58.931 51.596">
  <g id="customer_3126647" transform="translate(0 -32.375)">
    <ellipse id="Ellipse_8" data-name="Ellipse 8" cx="9.698" cy="10.045" rx="9.698" ry="10.045" transform="translate(19.767 32.375)" fill="#facde3"/>
    <circle id="Ellipse_9" data-name="Ellipse 9" cx="6.235" cy="6.235" r="6.235" transform="translate(43.32 39.995)" fill="#facde3"/>
    <circle id="Ellipse_10" data-name="Ellipse 10" cx="6.235" cy="6.235" r="6.235" transform="translate(3.141 39.995)" fill="#facde3"/>
    <path id="Tracé_57" data-name="Tracé 57" d="M15.445,242.311c-2.492-2.042-4.749-1.771-7.63-1.771A7.8,7.8,0,0,0,0,248.308v12.57a3.382,3.382,0,0,0,3.385,3.372c8.06,0,7.089.146,7.089-.348C10.474,255,9.419,248.464,15.445,242.311Z" transform="translate(0 -184.047)" fill="#facde3"/>
    <path id="Tracé_58" data-name="Tracé 58" d="M138.557,239.986c-5.033-.42-9.407,0-13.18,3.119-6.314,5.057-5.1,11.867-5.1,20.2a4.038,4.038,0,0,0,4.031,4.031c24.3,0,25.262.784,26.7-2.407.472-1.079.343-.736.343-11.058C151.355,245.671,144.257,239.986,138.557,239.986Z" transform="translate(-106.351 -183.447)" fill="#facde3"/>
    <path id="Tracé_59" data-name="Tracé 59" d="M385.44,240.541c-2.9,0-5.141-.267-7.63,1.771,5.981,6.107,4.971,12.193,4.971,21.591,0,.5-.806.348,6.968.348a3.5,3.5,0,0,0,3.506-3.492v-12.45A7.8,7.8,0,0,0,385.44,240.541Z" transform="translate(-334.324 -184.048)" fill="#facde3"/>
  </g>
</svg>
