<svg xmlns="http://www.w3.org/2000/svg" width="44.918" height="37.794" viewBox="0 0 44.918 37.794">
  <g id="money_6817122" transform="translate(0 -5)">
    <g id="Groupe_24" data-name="Groupe 24" transform="translate(0 5)">
      <path id="Tracé_68" data-name="Tracé 68" d="M17.615,11C14.527,11,12,14.088,12,18.018a7.443,7.443,0,0,0,3.65,6.6,13.748,13.748,0,0,1,7.44-8.141C22.528,13.386,20.282,11,17.615,11Z" transform="translate(4.844 -2.578)" fill="#fff"/>
      <path id="Tracé_69" data-name="Tracé 69" d="M43.514,5H1.4A1.326,1.326,0,0,0,0,6.4V34.477a1.326,1.326,0,0,0,1.4,1.4h18.95a13.936,13.936,0,0,1-.7-4.211H9.826a1.326,1.326,0,0,1-1.4-1.4,2.816,2.816,0,0,0-2.807-2.807,1.326,1.326,0,0,1-1.4-1.4V14.826a1.326,1.326,0,0,1,1.4-1.4,2.816,2.816,0,0,0,2.807-2.807,1.326,1.326,0,0,1,1.4-1.4H35.092a1.326,1.326,0,0,1,1.4,1.4A2.816,2.816,0,0,0,39.3,13.422a1.326,1.326,0,0,1,1.4,1.4V19.6a13.641,13.641,0,0,1,4.211,3.79V6.4A1.326,1.326,0,0,0,43.514,5Z" transform="translate(0 -5)" fill="#fff"/>
    </g>
    <path id="Tracé_70" data-name="Tracé 70" d="M19.239,19.239a11.216,11.216,0,1,0,15.862,0A11.268,11.268,0,0,0,19.239,19.239ZM31.17,25.274,29.2,27.24,31.17,29.2A1.39,1.39,0,0,1,29.2,31.17L27.24,29.2,25.274,31.17A1.39,1.39,0,0,1,23.309,29.2l1.965-1.965-1.965-1.965a1.39,1.39,0,0,1,1.965-1.965l1.965,1.965L29.2,23.309a1.39,1.39,0,0,1,1.965,1.965Z" transform="translate(6.449 4.43)" fill="#fff"/>
  </g>
</svg>
