<svg xmlns="http://www.w3.org/2000/svg" width="36.444" height="47.494" viewBox="0 0 36.444 47.494">
  <g id="support_7689887" transform="translate(-9 -2.026)">
    <path id="Tracé_77" data-name="Tracé 77" d="M34.824,32.126a7.114,7.114,0,0,1-8.549,0,.792.792,0,0,0-.952,1.267,8.726,8.726,0,0,0,10.454,0,.792.792,0,0,0-.953-1.266Z" transform="translate(-3.325 -6.218)" fill="#4e107c"/>
    <path id="Tracé_78" data-name="Tracé 78" d="M41.506,12.284a15.075,15.075,0,0,0-28.569,0A3.963,3.963,0,0,0,9,16.245v9.507a3.958,3.958,0,0,0,7.9.341,11.97,11.97,0,0,0,5.76,5.086A15.859,15.859,0,0,0,11.377,46.351v.792a2.384,2.384,0,0,0,2.377,2.377H40.69a2.384,2.384,0,0,0,2.377-2.377v-.792A15.859,15.859,0,0,0,31.785,31.179a11.97,11.97,0,0,0,5.76-5.086,3.943,3.943,0,0,0,3.145,3.541v.872H35.937a.792.792,0,0,0,0,1.585h5.546a.792.792,0,0,0,.792-.792V29.634a3.962,3.962,0,0,0,3.169-3.882V16.245A3.963,3.963,0,0,0,41.506,12.284ZM19.3,47.936H17.715V44.767a.792.792,0,0,1,1.585,0Zm5.213-8.453a.8.8,0,0,1-1.18-.063l-3.969-4.96a13.965,13.965,0,0,1,4.69-2v1.22a3.176,3.176,0,0,0,3.106,3.169l-2.646,2.638Zm1.125-5.807v-1.5a14.6,14.6,0,0,1,3.169,0v1.5A1.585,1.585,0,0,1,25.637,33.675Zm9.507,11.092a.792.792,0,0,1,1.585,0v3.169H35.145ZM33.687,33.651a12.249,12.249,0,0,1,1.394.808l-3.969,4.96a.8.8,0,0,1-1.18.063l-2.646-2.638a3.176,3.176,0,0,0,3.106-3.169v-1.22a13.22,13.22,0,0,1,3.3,1.2Zm-3.438-3.6a10.347,10.347,0,0,1-13.326-9.84c.563-13.662,20.036-13.661,20.6,0a10.306,10.306,0,0,1-7.273,9.84ZM37.8,14.8a11.906,11.906,0,0,0-21.153,0,4,4,0,0,0-2.139-2.2,13.5,13.5,0,0,1,6.5-7.495,2.36,2.36,0,0,0,2.25,1.64h7.923a2.36,2.36,0,0,0,2.25-1.64,13.5,13.5,0,0,1,6.5,7.495A4,4,0,0,0,37.8,14.8Z" transform="translate(0 0)" fill="#4e107c"/>
  </g>
</svg>
