<svg xmlns="http://www.w3.org/2000/svg" width="49.098" height="49.313" viewBox="0 0 49.098 49.313">
  <path id="application_9711023" d="M42.081,26.59A10.391,10.391,0,1,1,52.47,37.029,10.428,10.428,0,0,1,42.081,26.59ZM20.543,38.179H32.386A5.631,5.631,0,0,0,38,32.539v-11.9A5.631,5.631,0,0,0,32.386,15H20.543a5.635,5.635,0,0,0-5.615,5.64v11.9A5.635,5.635,0,0,0,20.543,38.179Zm9.4,5.974a4.015,4.015,0,0,0-6.969,0l-7.524,13.1a4.018,4.018,0,0,0,0,4.042,3.976,3.976,0,0,0,3.482,2.022H33.989A3.976,3.976,0,0,0,37.47,61.29a4.018,4.018,0,0,0,0-4.042ZM58.4,41.132H46.549a5.631,5.631,0,0,0-5.611,5.64v11.9a5.631,5.631,0,0,0,5.611,5.64H58.4a5.631,5.631,0,0,0,5.611-5.64v-11.9A5.631,5.631,0,0,0,58.4,41.132Z" transform="translate(-14.909 -14.999)" fill="#e40473"/>
</svg>
