<svg xmlns="http://www.w3.org/2000/svg" width="29.023" height="51.596" viewBox="0 0 29.023 51.596">
  <g id="Layer_1" transform="translate(-14)">
    <path id="Tracé_60" data-name="Tracé 60" d="M18.837,51.6H38.186a4.842,4.842,0,0,0,4.837-4.837V4.837A4.842,4.842,0,0,0,38.186,0H18.837A4.842,4.842,0,0,0,14,4.837V46.759A4.842,4.842,0,0,0,18.837,51.6Zm9.674-1.612a2.419,2.419,0,1,1,2.419-2.419A2.418,2.418,0,0,1,28.511,49.984ZM24.481,3.225h8.062V4.837H24.481ZM15.612,8.062h25.8V43.534h-25.8Z" fill="#fce0cc"/>
  </g>
</svg>
