<svg xmlns="http://www.w3.org/2000/svg" width="45.001" height="44.999" viewBox="0 0 45.001 44.999">
  <path id="budget-alt_13794139" d="M14.806,24.991c1.181-1.207,2.316-2.777,2.316-4.367H7.253c0,1.59,1.134,3.159,2.316,4.367A13.578,13.578,0,0,0,0,37.52,7.5,7.5,0,0,0,7.5,45h9.375a7.5,7.5,0,0,0,7.5-7.477A13.574,13.574,0,0,0,14.8,24.991Zm2.07,14.383H7.5a1.866,1.866,0,0,1-1.875-1.852c0-3.536,3.373-7.275,6.562-7.275s6.562,3.741,6.562,7.275a1.866,1.866,0,0,1-1.875,1.852ZM45,11.25H39.375V38.437A6.61,6.61,0,0,1,32.813,45H25.243a11.16,11.16,0,0,0,2.715-5.625h4.854a.938.938,0,0,0,.937-.937V11.25H15V7.5a1.875,1.875,0,0,0-3.75,0v9.375H5.626V7.5a7.507,7.507,0,0,1,7.5-7.5H38.438A6.57,6.57,0,0,1,45,6.562Z" transform="translate(0.001)" fill="#4e107c"/>
</svg>
