<svg xmlns="http://www.w3.org/2000/svg" width="41.451" height="42.451" viewBox="0 0 41.451 42.451">
  <g id="Layer_2_00000091706249934920805630000015376850612818563985_" transform="translate(-6)">
    <g id="Layer_1_copy_7" transform="translate(6 0)">
      <g id="_107" transform="translate(0 0)">
        <path id="Tracé_79" data-name="Tracé 79" d="M223.9,181.6h5.322v5.322H223.9Z" transform="translate(-205.836 -166.545)" fill="#fff"/>
        <path id="Tracé_80" data-name="Tracé 80" d="M40.421,0H13.03A7.028,7.028,0,0,0,6,7.03V28.4a7.034,7.034,0,0,0,7.03,7.03h5.231l5.985,5.985a3.51,3.51,0,0,0,4.966.008l.008-.008,5.985-5.985h5.223a7.027,7.027,0,0,0,7.022-7.03V7.03A7.034,7.034,0,0,0,40.421,0ZM36.574,20.377a2.545,2.545,0,1,1,0,5.09H34.485v2.089a2.545,2.545,0,1,1-5.09,0V25.467H24.072v2.089a2.545,2.545,0,1,1-5.09,0V25.467H16.893a2.545,2.545,0,0,1,0-5.09h2.089V15.055H16.893a2.55,2.55,0,0,1,0-5.1h2.089V7.867a2.545,2.545,0,1,1,5.09,0V9.956h5.322V7.867a2.545,2.545,0,0,1,5.09,0V9.956h2.089a2.55,2.55,0,0,1,0,5.1H34.485v5.322Z" transform="translate(-6 0)" fill="#fff"/>
      </g>
    </g>
  </g>
</svg>
