<svg xmlns="http://www.w3.org/2000/svg" width="61.085" height="30.557" viewBox="0 0 61.085 30.557">
  <g id="Artboard11" transform="translate(-197.043 -346.126)">
    <path id="Tracé_71" data-name="Tracé 71" d="M15.357,285.063a15.385,15.385,0,0,1,30.4,0,.637.637,0,0,1-.63.73c-4.16,0-24.977,0-29.138,0a.635.635,0,0,1-.628-.728Zm25.916-11.35v-2.9a.637.637,0,0,1,.637-.637h3.706a.637.637,0,0,1,.637.637v7.631h-.782A17.509,17.509,0,0,0,41.273,273.714Zm5.255,6.77H75.8a.637.637,0,0,1,.637.637v1.458a.637.637,0,0,1-.637.637H47.459A17.3,17.3,0,0,0,46.528,280.483Zm3.995-2.039V265.8a.637.637,0,0,1,.637-.637h3.706a.637.637,0,0,1,.637.637v12.64Zm9.248,0V260.577a.637.637,0,0,1,.637-.637h3.708a.637.637,0,0,1,.637.637v17.867Zm9.25,0V255.873a.637.637,0,0,1,.637-.637h3.706a.637.637,0,0,1,.637.637v22.571Zm-38.466-7.652a7.778,7.778,0,1,1,7.778-7.778A7.791,7.791,0,0,1,30.555,270.792Z" transform="translate(181.692 90.89)" fill="#facde3" fill-rule="evenodd"/>
  </g>
</svg>
