<svg xmlns="http://www.w3.org/2000/svg" width="43.918" height="37.644" viewBox="0 0 43.918 37.644">
  <g id="wallet_7945180" transform="translate(0 -36.571)">
    <g id="layer2_00000150810907314468645370000017884153136983409830_" transform="translate(0 36.571)">
      <g id="g15449">
        <path id="path162947" d="M9.842,40.571A7.86,7.86,0,0,0,2,48.413V70.372a7.86,7.86,0,0,0,7.842,7.842H38.075a7.86,7.86,0,0,0,7.842-7.842V67.235H30.233a7.842,7.842,0,0,1,0-15.685H45.918V48.413a7.86,7.86,0,0,0-7.842-7.842Zm20.39,14.116a4.705,4.705,0,0,0,0,9.411H45.918V54.687Zm0,3.137a1.569,1.569,0,1,1-1.569,1.569A1.569,1.569,0,0,1,30.233,57.824Z" transform="translate(-2 -40.571)" fill="#e40473"/>
      </g>
    </g>
  </g>
</svg>
