<svg xmlns="http://www.w3.org/2000/svg" width="54.424" height="50.079" viewBox="0 0 54.424 50.079">
  <g id="XMLID_1283_" transform="translate(-8 -9.917)">
    <path id="XMLID_591_" d="M49.952,42.225a5.671,5.671,0,0,0,5.669,5.669h6.8v7.937A2.274,2.274,0,0,1,60.156,58.1H10.268A2.274,2.274,0,0,1,8,55.831V24.084a3.407,3.407,0,0,0,3.4,3.4H60.156a2.274,2.274,0,0,1,2.268,2.268v6.8h-6.8A5.671,5.671,0,0,0,49.952,42.225Z" transform="translate(0 1.896)" fill="#4e107c"/>
    <path id="XMLID_592_" d="M18.136,21.084l-5.669,5.669H11.379a2.284,2.284,0,0,1-2.268-2.268,1.132,1.132,0,0,0-.941-1.111,3.374,3.374,0,0,1,3.209-2.29Z" transform="translate(0.023 1.495)" fill="#4e107c"/>
    <path id="XMLID_544_" d="M50.774,24.486v2.268H45.909a4.209,4.209,0,0,0,.181-.533,3.352,3.352,0,0,0-.363-2.574L44.22,21.084h3.152a3.4,3.4,0,0,1,3.4,3.4Z" transform="translate(4.848 1.495)" fill="#4e107c"/>
    <path id="XMLID_295_" d="M57.338,45.155h-6.8a4.535,4.535,0,1,1,0-9.071h6.8Z" transform="translate(5.086 3.502)" fill="#4e107c"/>
    <path id="XMLID_640_" d="M14.843,26.2H13.38l.964-.964a.823.823,0,0,0,.113.317Z" transform="translate(0.72 2.05)" fill="#4e107c"/>
    <path id="XMLID_594_" d="M36.4,13.1,16.24,25.005,30.674,10.571a2.279,2.279,0,0,1,3.2,0Z" transform="translate(1.103)" fill="#4e107c"/>
    <path id="XMLID_597_" d="M45.144,20.627a6.544,6.544,0,0,0-1.621,1.236A7.813,7.813,0,0,0,41.2,27.509h-5.2a4.608,4.608,0,0,0-1.225-4.116,4.54,4.54,0,0,0-3.209-1.327,4.586,4.586,0,0,0-3.22,1.327,4.51,4.51,0,0,0-1.213,4.116H23.193a7.812,7.812,0,0,0-1.043-5.885l10.5-6.191a7.929,7.929,0,0,0,6.86,3.946,7.946,7.946,0,0,0,4.2-1.2Z" transform="translate(1.894 0.738)" fill="#4e107c"/>
    <path id="XMLID_596_" d="M22.968,26.71H15.916l-.726-1.225L22.106,21.4A6.762,6.762,0,0,1,22.968,26.71Z" transform="translate(0.962 1.537)" fill="#4e107c"/>
    <path id="XMLID_568_" d="M45.156,26.781H39.94a6.738,6.738,0,0,1,2-4.841,5.756,5.756,0,0,1,1.406-1.066l1.984,3.367a2.258,2.258,0,0,1-.17,2.54Z" transform="translate(4.275 1.467)" fill="#4e107c"/>
    <path id="XMLID_347_" d="M39.439,13.646l2.328,3.947a6.812,6.812,0,0,1-9.5-2.348l4.067-2.4a2.274,2.274,0,0,1,3.107.8Z" transform="translate(3.248 0.35)" fill="#4e107c"/>
    <path id="XMLID_541_" d="M34.117,26.592H27.586a3.329,3.329,0,0,1,.85-3.311,3.415,3.415,0,0,1,4.819,0,3.36,3.36,0,0,1,.862,3.311Z" transform="translate(2.603 1.656)" fill="#4e107c"/>
  </g>
</svg>
