<svg xmlns="http://www.w3.org/2000/svg" width="55.405" height="48.252" viewBox="0 0 55.405 48.252">
  <g id="banking_4699880" transform="translate(-1 -2.938)">
    <path id="Tracé_6" data-name="Tracé 6" d="M54.78,13.875,29.755,3.145a2.771,2.771,0,0,0-2.105,0L2.625,13.875A2.685,2.685,0,0,0,1,16.332v4.026a2.68,2.68,0,0,0,2.678,2.678h7.2c.092,5.707.148,11.413.111,14.461H7.261a2.678,2.678,0,0,0,0,5.356H50.144a2.678,2.678,0,1,0,0-5.356H46.58c.074-2.659.018-7.073-.129-14.461h7.277A2.68,2.68,0,0,0,56.4,20.358V16.332a2.685,2.685,0,0,0-1.625-2.456ZM26.1,37.5H16.366c.074-2.659.018-7.073-.129-14.461h9.751c.092,5.707.148,11.413.111,14.461Zm15.107,0H31.473c.074-2.659.018-7.073-.129-14.461h9.751C41.187,28.742,41.242,34.449,41.206,37.5Z" transform="translate(0 0)" fill="#dccfe5"/>
    <path id="Tracé_7" data-name="Tracé 7" d="M48.511,31.523a2.681,2.681,0,0,0,0-5.362H5.616a2.681,2.681,0,0,0,0,5.362Z" transform="translate(1.639 19.666)" fill="#dccfe5"/>
  </g>
</svg>
