<svg xmlns="http://www.w3.org/2000/svg" width="48.054" height="48.054" viewBox="0 0 48.054 48.054">
  <g id="home_5258460" transform="translate(0 -0.013)">
    <g id="Layer_2_77_" transform="translate(0 0.013)">
      <path id="Tracé_44" data-name="Tracé 44" d="M45.869,16.559,27.85,1.413a5.922,5.922,0,0,0-7.645,0L2.186,16.558A6.14,6.14,0,0,0,0,21.276V41.95a6.07,6.07,0,0,0,6.007,6.117H16.018a2,2,0,0,0,2-2V32.048a6.007,6.007,0,1,1,12.013,0V46.064a2,2,0,0,0,2,2H42.047a6.07,6.07,0,0,0,6.007-6.117V21.276A6.139,6.139,0,0,0,45.869,16.559Z" transform="translate(0 -0.013)" fill="#e40473"/>
    </g>
  </g>
</svg>
