<svg xmlns="http://www.w3.org/2000/svg" width="58.001" height="58.001" viewBox="0 0 58.001 58.001">
  <g id="crosshair" transform="translate(-1 -1)">
    <path id="Tracé_43" data-name="Tracé 43" d="M30,14.534A15.467,15.467,0,1,0,45.468,30,15.487,15.487,0,0,0,30,14.534Zm0,13.534A5.791,5.791,0,0,1,31.934,39.32v.347a1.933,1.933,0,0,1-3.867,0V39.32A5.821,5.821,0,0,1,24.2,33.867a1.933,1.933,0,0,1,3.867,0A1.933,1.933,0,1,0,30,31.934a5.791,5.791,0,0,1-1.933-11.253v-.347a1.933,1.933,0,1,1,3.867,0v.347A5.821,5.821,0,0,1,35.8,26.134a1.933,1.933,0,0,1-3.867,0A1.933,1.933,0,1,0,30,28.067ZM59,30a1.94,1.94,0,0,1-1.933,1.933h-2.03a25.15,25.15,0,0,1-23.1,23.1v2.03a1.933,1.933,0,0,1-3.867,0v-2.03a25.15,25.15,0,0,1-23.1-23.1H2.933a1.933,1.933,0,1,1,0-3.867h2.03a25.076,25.076,0,0,1,18.058-22.2L25.515,9.2A21.271,21.271,0,0,0,8.83,28.067h1.837a1.933,1.933,0,0,1,0,3.867H8.83A21.3,21.3,0,0,0,28.067,51.171V49.334a1.933,1.933,0,0,1,3.867,0v1.837A21.3,21.3,0,0,0,51.171,31.934H49.334a1.933,1.933,0,0,1,0-3.867h1.837A21.271,21.271,0,0,0,34.486,9.2L36.98,5.871a25.076,25.076,0,0,1,18.058,22.2h2.03A1.94,1.94,0,0,1,59,30ZM35.8,1,30,8.733,24.2,1Z" fill="#f77d28"/>
  </g>
</svg>
