<svg xmlns="http://www.w3.org/2000/svg" width="51.113" height="53.471" viewBox="0 0 51.113 53.471">
  <g id="building_14717377" transform="translate(-3.778 -1)">
    <path id="Tracé_38" data-name="Tracé 38" d="M51.793,69.741,37.576,76.313l-2.99.078a5.788,5.788,0,0,1-4,1.818l-10.327.368a1.415,1.415,0,0,1-.1-2.829l10.223-.365a3.008,3.008,0,0,0,2.939-3.006A2.941,2.941,0,0,0,30.5,69.5l-13.777-.552v0l0,0a9.59,9.59,0,0,0-8.63,5.366l-4.13,10.05A2.385,2.385,0,0,0,4.765,87.2l8.191,5.927a2.385,2.385,0,0,0,3.3-.491l2.974-3.921a5.962,5.962,0,0,1,4.929-2.357l8.911.266a11.03,11.03,0,0,0,7.128-2.34L54.054,73.44a2.182,2.182,0,0,0-2.26-3.7Z" transform="translate(0 -39.113)" fill="#f77d28"/>
    <path id="Tracé_39" data-name="Tracé 39" d="M72.845,15.673,55.752,1.479a2.078,2.078,0,0,0-2.655,0L47.3,6.3V3.189a1.035,1.035,0,0,0-1.034-1.038H41.554a1.039,1.039,0,0,0-1.038,1.038v8.734L36,15.673a1.039,1.039,0,0,0,.662,1.837h2.26v9.895l6.7.267a1.209,1.209,0,0,1,1.869-1.08,1.905,1.905,0,0,0,2.633-.56l6.571-10.119a4.329,4.329,0,0,1,5.989-1.273,1.213,1.213,0,1,1-1.321,2.034,1.906,1.906,0,0,0-2.633.56L52.156,27.354A4.329,4.329,0,0,1,51.2,28.4a5.535,5.535,0,0,1,3.039,4.8,5.05,5.05,0,0,1-.132,1.311h1.461l13.48-6.23a4.756,4.756,0,0,1,.879-.305V17.51h2.26a1.038,1.038,0,0,0,.662-1.837Zm-23.555,4.9a3.513,3.513,0,1,1,2.786-1.35A3.5,3.5,0,0,1,49.29,20.575ZM59.467,29.7a3.5,3.5,0,1,1,3.563-3.441A3.5,3.5,0,0,1,59.467,29.7Z" transform="translate(-18.333 0)" fill="#f77d28"/>
  </g>
</svg>
