<svg id="prohibition_929528" xmlns="http://www.w3.org/2000/svg" width="44.98" height="44.98" viewBox="0 0 44.98 44.98">
  <g id="Groupe_10" data-name="Groupe 10" transform="translate(15.434 15.434)">
    <g id="Groupe_9" data-name="Groupe 9">
      <path id="Tracé_40" data-name="Tracé 40" d="M195.385,175.683l-19.7,19.7a14.333,14.333,0,0,0,7.056,1.849,14.512,14.512,0,0,0,14.5-14.5A14.333,14.333,0,0,0,195.385,175.683Z" transform="translate(-175.683 -175.683)" fill="#facde3"/>
    </g>
  </g>
  <g id="Groupe_12" data-name="Groupe 12">
    <g id="Groupe_11" data-name="Groupe 11">
      <path id="Tracé_41" data-name="Tracé 41" d="M22.49,0A22.49,22.49,0,1,0,44.98,22.49,22.578,22.578,0,0,0,22.49,0ZM8.541,32.4A17.106,17.106,0,0,1,32.4,8.541l1.269.9L9.445,33.672ZM22.49,39.621a16.988,16.988,0,0,1-9.913-3.183l-1.269-.9L35.535,11.308l.9,1.269A17.106,17.106,0,0,1,22.49,39.621Z" fill="#facde3"/>
    </g>
  </g>
  <g id="Groupe_14" data-name="Groupe 14" transform="translate(7.994 7.994)">
    <g id="Groupe_13" data-name="Groupe 13">
      <path id="Tracé_42" data-name="Tracé 42" d="M105.5,91A14.512,14.512,0,0,0,91,105.5a14.333,14.333,0,0,0,1.849,7.056l19.7-19.7A14.333,14.333,0,0,0,105.5,91Z" transform="translate(-91 -91)" fill="#facde3"/>
    </g>
  </g>
</svg>
