<svg xmlns="http://www.w3.org/2000/svg" width="61.001" height="38.063" viewBox="0 0 61.001 38.063">
  <g id="money_9945323" transform="translate(-1.5 -12.969)">
    <path id="Tracé_8" data-name="Tracé 8" d="M7.16,12.97H3a1.5,1.5,0,0,0-1.5,1.5V28.59A1.5,1.5,0,0,0,3,30.09H7.16a1.5,1.5,0,0,0,1.5-1.5V14.47a1.5,1.5,0,0,0-1.5-1.5Z" fill="#fce0cc"/>
    <path id="Tracé_9" data-name="Tracé 9" d="M28.96,20.32h1.15a4.2,4.2,0,0,1,0,8.39H28.746a7.524,7.524,0,1,0,.214-8.39Z" fill="#fce0cc"/>
    <path id="Tracé_10" data-name="Tracé 10" d="M22.09,28.85a11.547,11.547,0,0,1,4.96-1.14h3.06a3.2,3.2,0,0,0,0-6.39H18.35a.5.5,0,0,1,0-1h9.38a8.853,8.853,0,0,1,5.57-3.97,57.584,57.584,0,0,0-9.51-2.9A25.564,25.564,0,0,0,9.66,14.68V28.3l2.73,1.01a12.433,12.433,0,0,0,9.7-.46Z" fill="#fce0cc"/>
    <path id="Tracé_11" data-name="Tracé 11" d="M62.1,34.09l-6.41-1.35a12.018,12.018,0,0,0-7.8.98c-2.81,1.39-12.9,5.77-12.99,5.8a2.849,2.849,0,0,0,2.12,5.29l9.95-4,.35.94-9.93,3.99a3.848,3.848,0,0,1-5-2.13,4.037,4.037,0,0,1-.26-1.22L19.3,41.04a2.123,2.123,0,0,0-2.79,1.98,2.491,2.491,0,0,0,1.79,2.55L37.92,50.8a5.913,5.913,0,0,0,4.75-.65l8.61-3.83a5.7,5.7,0,0,1,4.24-.76l3.99.84a.5.5,0,0,0,.59-.39l2.37-11.25a.508.508,0,0,0-.37-.67Z" fill="#fce0cc"/>
  </g>
</svg>
