<svg xmlns="http://www.w3.org/2000/svg" width="47.743" height="47.743" viewBox="0 0 47.743 47.743">
  <path id="tranfer_11220345" d="M47.824,9.161c1.919,3.324,1.919,7.786,1.919,16.71s0,13.386-1.919,16.71a14.327,14.327,0,0,1-5.243,5.243c-3.324,1.919-7.786,1.919-16.71,1.919s-13.386,0-16.71-1.919a14.325,14.325,0,0,1-5.243-5.243C2,39.258,2,34.8,2,25.872S2,12.485,3.919,9.161A14.323,14.323,0,0,1,9.161,3.919C12.485,2,16.947,2,25.872,2s13.386,0,16.71,1.919A14.325,14.325,0,0,1,47.824,9.161ZM34.95,9.752a1.79,1.79,0,0,1,2.532,0l6.366,6.366a1.79,1.79,0,0,1,0,2.532l-6.366,6.366a1.79,1.79,0,1,1-2.532-2.532l3.309-3.309H17.119a1.79,1.79,0,1,1,0-3.581H38.259L34.95,12.284a1.79,1.79,0,0,1,0-2.532ZM16.793,29.26a1.79,1.79,0,0,0-2.532-2.532L7.9,33.094a1.79,1.79,0,0,0,0,2.532l6.366,6.366a1.79,1.79,0,1,0,2.532-2.532L13.484,36.15H34.625a1.79,1.79,0,0,0,0-3.581H13.484Z" transform="translate(-2 -2)" fill="#e40473" fill-rule="evenodd"/>
</svg>
